<svg width="5219" height="2721" xmlns="http://www.w3.org/2000/svg" xmlns:xlink="http://www.w3.org/1999/xlink" xml:space="preserve" overflow="hidden"><g transform="translate(-964 -1053)"><path d="M5665.5 2842.5 5665.5 3047.67 5732.4 3047.67" stroke="#4774AB" stroke-width="9.16667" stroke-linejoin="round" stroke-miterlimit="10" fill="none" fill-rule="evenodd"/><path d="M5844 2525.5 5844 2619.17" stroke="#4774AB" stroke-width="9.16667" stroke-linejoin="round" stroke-miterlimit="10" fill="none" fill-rule="evenodd"/><path d="M5844 2208.5 5844 2302.17" stroke="#4774AB" stroke-width="9.16667" stroke-linejoin="round" stroke-miterlimit="10" fill="none" fill-rule="evenodd"/><path d="M5844 1892.5 5844 1986.17" stroke="#4774AB" stroke-width="9.16667" stroke-linejoin="round" stroke-miterlimit="10" fill="none" fill-rule="evenodd"/><path d="M5844 1575.5 5844 1669.17" stroke="#3D6696" stroke-width="9.16667" stroke-linejoin="round" stroke-miterlimit="10" fill="none" fill-rule="evenodd"/><path d="M5014.5 2525.5 5014.5 2730.67 5081.4 2730.67" stroke="#4774AB" stroke-width="9.16667" stroke-linejoin="round" stroke-miterlimit="10" fill="none" fill-rule="evenodd"/><path d="M5193 2208.5 5193 2302.17" stroke="#4774AB" stroke-width="9.16667" stroke-linejoin="round" stroke-miterlimit="10" fill="none" fill-rule="evenodd"/><path d="M5193 1892.5 5193 1986.17" stroke="#4774AB" stroke-width="9.16667" stroke-linejoin="round" stroke-miterlimit="10" fill="none" fill-rule="evenodd"/><path d="M5193 1575.5 5193 1669.17" stroke="#3D6696" stroke-width="9.16667" stroke-linejoin="round" stroke-miterlimit="10" fill="none" fill-rule="evenodd"/><path d="M4474.5 2525.5 4474.5 2730.67 4541.4 2730.67" stroke="#4774AB" stroke-width="9.16667" stroke-linejoin="round" stroke-miterlimit="10" fill="none" fill-rule="evenodd"/><path d="M4653 2208.5 4653 2302.17" stroke="#4774AB" stroke-width="9.16667" stroke-linejoin="round" stroke-miterlimit="10" fill="none" fill-rule="evenodd"/><path d="M4653 1892.5 4653 1986.17" stroke="#4774AB" stroke-width="9.16667" stroke-linejoin="round" stroke-miterlimit="10" fill="none" fill-rule="evenodd"/><path d="M4653 1575.5 4653 1669.17" stroke="#3D6696" stroke-width="9.16667" stroke-linejoin="round" stroke-miterlimit="10" fill="none" fill-rule="evenodd"/><path d="M3823.5 2208.5 3823.5 2413.67 3890.4 2413.67" stroke="#4774AB" stroke-width="9.16667" stroke-linejoin="round" stroke-miterlimit="10" fill="none" fill-rule="evenodd"/><path d="M4002 1892.5 4002 1986.17" stroke="#4774AB" stroke-width="9.16667" stroke-linejoin="round" stroke-miterlimit="10" fill="none" fill-rule="evenodd"/><path d="M4002 1575.5 4002 1669.17" stroke="#3D6696" stroke-width="9.16667" stroke-linejoin="round" stroke-miterlimit="10" fill="none" fill-rule="evenodd"/><path d="M3172.5 1892.5 3172.5 2097.67 3239.4 2097.67" stroke="#4774AB" stroke-width="9.16667" stroke-linejoin="round" stroke-miterlimit="10" fill="none" fill-rule="evenodd"/><path d="M3351 1575.5 3351 1669.17" stroke="#3D6696" stroke-width="9.16667" stroke-linejoin="round" stroke-miterlimit="10" fill="none" fill-rule="evenodd"/><path d="M2632.5 1892.5 2632.5 2097.67 2699.4 2097.67" stroke="#4774AB" stroke-width="9.16667" stroke-linejoin="round" stroke-miterlimit="10" fill="none" fill-rule="evenodd"/><path d="M2811 1575.5 2811 1669.17" stroke="#3D6696" stroke-width="9.16667" stroke-linejoin="round" stroke-miterlimit="10" fill="none" fill-rule="evenodd"/><path d="M2271 1575.5 2271 1669.17" stroke="#3D6696" stroke-width="9.16667" stroke-linejoin="round" stroke-miterlimit="10" fill="none" fill-rule="evenodd"/><path d="M1553.5 2842.5 1553.5 3364.35 1620.4 3364.35" stroke="#4774AB" stroke-width="9.16667" stroke-linejoin="round" stroke-miterlimit="10" fill="none" fill-rule="evenodd"/><path d="M1553.5 2842.5 1553.5 3047.67 1620.4 3047.67" stroke="#4774AB" stroke-width="9.16667" stroke-linejoin="round" stroke-miterlimit="10" fill="none" fill-rule="evenodd"/><path d="M1732 2525.5 1732 2619.17" stroke="#4774AB" stroke-width="9.16667" stroke-linejoin="round" stroke-miterlimit="10" fill="none" fill-rule="evenodd"/><path d="M1732 2208.5 1732 2302.17" stroke="#4774AB" stroke-width="9.16667" stroke-linejoin="round" stroke-miterlimit="10" fill="none" fill-rule="evenodd"/><path d="M1732 1892.5 1732 1986.17" stroke="#4774AB" stroke-width="9.16667" stroke-linejoin="round" stroke-miterlimit="10" fill="none" fill-rule="evenodd"/><path d="M1732 1575.5 1732 1669.17" stroke="#3D6696" stroke-width="9.16667" stroke-linejoin="round" stroke-miterlimit="10" fill="none" fill-rule="evenodd"/><path d="M1192 1575.5 1192 1669.17" stroke="#3D6696" stroke-width="9.16667" stroke-linejoin="round" stroke-miterlimit="10" fill="none" fill-rule="evenodd"/><rect x="968.5" y="1352.5" width="447" height="223" stroke="#FFFFFF" stroke-width="9.16667" stroke-linejoin="round" stroke-miterlimit="10" fill="#FFFFFF"/><text font-family="Calibri,Calibri_MSFontService,sans-serif" font-weight="400" font-size="60" transform="matrix(1 0 0 1 1012.18 1480)">Rollo, died 928</text><rect x="968.5" y="1669.5" width="447" height="223" stroke="#FFFFFF" stroke-width="9.16667" stroke-linejoin="round" stroke-miterlimit="10" fill="#DE2E2E"/><text fill="#FFFFFF" font-family="Calibri,Calibri_MSFontService,sans-serif" font-weight="400" font-size="60" transform="matrix(1 0 0 1 1063.33 1796)">Normandy</text><rect x="1508.5" y="1352.5" width="446" height="223" stroke="#FFFFFF" stroke-width="9.16667" stroke-linejoin="round" stroke-miterlimit="10" fill="#FFFFFF"/><text font-family="Calibri,Calibri_MSFontService,sans-serif" font-weight="400" font-size="60" transform="matrix(1 0 0 1 1552.15 1480)">Geoffrey I, 985</text><rect x="1508" y="1669" width="446" height="223" fill="#F2F2F2"/><text font-family="Calibri,Calibri_MSFontService,sans-serif" font-weight="400" font-size="60" transform="matrix(1 0 0 1 1514.88 1764)">Châteaudun</text><text font-family="Calibri,Calibri_MSFontService,sans-serif" font-weight="400" font-size="60" transform="matrix(1 0 0 1 1822.13 1764)">et du </text><text font-family="Calibri,Calibri_MSFontService,sans-serif" font-weight="400" font-size="60" transform="matrix(1 0 0 1 1648.56 1830)">Perche</text><rect x="1508" y="1985" width="446" height="223" fill="#F2F2F2"/><text font-family="Calibri,Calibri_MSFontService,sans-serif" font-weight="400" font-size="60" transform="matrix(1 0 0 1 1552.68 2113)">Gâtinais</text><text font-family="Calibri,Calibri_MSFontService,sans-serif" font-weight="400" font-size="60" transform="matrix(1 0 0 1 1748.71 2113)">-</text><text font-family="Calibri,Calibri_MSFontService,sans-serif" font-weight="400" font-size="60" transform="matrix(1 0 0 1 1766.96 2113)">Anjou</text><rect x="1508.5" y="2302.5" width="446" height="223" stroke="#FFFFFF" stroke-width="9.16667" stroke-linejoin="round" stroke-miterlimit="10" fill="#632523"/><text fill="#FFFFFF" font-family="Calibri,Calibri_MSFontService,sans-serif" font-weight="400" font-size="60" transform="matrix(1 0 0 1 1633.9 2397)">Angevin </text><text fill="#FFFFFF" font-family="Calibri,Calibri_MSFontService,sans-serif" font-weight="400" font-size="60" transform="matrix(1 0 0 1 1547.69 2463)">(Retrospective)</text><rect x="1508.5" y="2619.5" width="446" height="223" stroke="#FFFFFF" stroke-width="9.16667" stroke-linejoin="round" stroke-miterlimit="10" fill="#953735"/><text fill="#FFFFFF" font-family="Calibri,Calibri_MSFontService,sans-serif" font-weight="400" font-size="60" transform="matrix(1 0 0 1 1586.53 2701)">Plantagenet</text><text fill="#FFFFFF" font-family="Calibri,Calibri_MSFontService,sans-serif" font-weight="400" font-size="60" transform="matrix(1 0 0 1 1547.69 2792)">(Retrospective)</text><rect x="1620.5" y="2935.5" width="446" height="223" stroke="#FFFFFF" stroke-width="9.16667" stroke-linejoin="round" stroke-miterlimit="10" fill="#D99694"/><text fill="#FFFFFF" font-family="Calibri,Calibri_MSFontService,sans-serif" font-weight="400" font-size="60" transform="matrix(1 0 0 1 1727.46 3063)">Lancaster</text><rect x="1620.5" y="3252.5" width="446" height="223" stroke="#FFFFFF" stroke-width="9.16667" stroke-linejoin="round" stroke-miterlimit="10" fill="#D9D9D9"/><text font-family="Calibri,Calibri_MSFontService,sans-serif" font-weight="400" font-size="60" transform="matrix(1 0 0 1 1790.77 3380)">York</text><rect x="2048.5" y="1352.5" width="446" height="223" stroke="#FFFFFF" stroke-width="9.16667" stroke-linejoin="round" stroke-miterlimit="10" fill="#FFFFFF"/><text font-family="Calibri,Calibri_MSFontService,sans-serif" font-weight="400" font-size="60" transform="matrix(1 0 0 1 2110.58 1447)">Theobald the </text><text font-family="Calibri,Calibri_MSFontService,sans-serif" font-weight="400" font-size="60" transform="matrix(1 0 0 1 2092 1513)">Elder, died 940</text><rect x="2048.5" y="1669.5" width="446" height="223" stroke="#FFFFFF" stroke-width="9.16667" stroke-linejoin="round" stroke-miterlimit="10" fill="#4F81BD"/><text fill="#FFFFFF" font-family="Calibri,Calibri_MSFontService,sans-serif" font-weight="400" font-size="60" transform="matrix(1 0 0 1 2213.64 1796)">Blois</text><rect x="2588.5" y="1352.5" width="446" height="223" stroke="#FFFFFF" stroke-width="9.16667" stroke-linejoin="round" stroke-miterlimit="10" fill="#FFFFFF"/><text font-family="Calibri,Calibri_MSFontService,sans-serif" font-weight="400" font-size="60" transform="matrix(1 0 0 1 2629.76 1447)">Ednyfed</text><text font-family="Calibri,Calibri_MSFontService,sans-serif" font-weight="400" font-size="60" transform="matrix(1 0 0 1 2837.89 1447)">Fycha</text><text font-family="Calibri,Calibri_MSFontService,sans-serif" font-weight="400" font-size="60" transform="matrix(1 0 0 1 2976.52 1447)">, </text><text font-family="Calibri,Calibri_MSFontService,sans-serif" font-weight="400" font-size="60" transform="matrix(1 0 0 1 2690.47 1513)">died 1246</text><rect x="2588" y="1669" width="446" height="223" fill="#F2F2F2"/><text font-family="Calibri,Calibri_MSFontService,sans-serif" font-weight="400" font-size="60" transform="matrix(1 0 0 1 2697.83 1764)">Tudors of </text><text font-family="Calibri,Calibri_MSFontService,sans-serif" font-weight="400" font-size="60" transform="matrix(1 0 0 1 2669.02 1830)">Penmynydd</text><rect x="2699.5" y="1985.5" width="446" height="223" stroke="#FFFFFF" stroke-width="9.16667" stroke-linejoin="round" stroke-miterlimit="10" fill="#77933C"/><text fill="#FFFFFF" font-family="Calibri,Calibri_MSFontService,sans-serif" font-weight="400" font-size="60" transform="matrix(1 0 0 1 2852.01 2113)">Tudor</text><rect x="3127.5" y="1352.5" width="446" height="223" stroke="#FFFFFF" stroke-width="9.16667" stroke-linejoin="round" stroke-miterlimit="10" fill="#FFFFFF"/><text font-family="Calibri,Calibri_MSFontService,sans-serif" font-weight="400" font-size="60" transform="matrix(1 0 0 1 3253.39 1414)">Dudo</text><text font-family="Calibri,Calibri_MSFontService,sans-serif" font-weight="400" font-size="60" transform="matrix(1 0 0 1 3397.56 1414)">of </text><text font-family="Calibri,Calibri_MSFontService,sans-serif" font-weight="400" font-size="60" transform="matrix(1 0 0 1 3144.58 1480)">Laurenburg</text><text font-family="Calibri,Calibri_MSFontService,sans-serif" font-weight="400" font-size="60" transform="matrix(1 0 0 1 3421.66 1480)">, died </text><text font-family="Calibri,Calibri_MSFontService,sans-serif" font-weight="400" font-size="60" transform="matrix(1 0 0 1 3289.85 1545)">1123</text><rect x="3127" y="1669" width="446" height="223" fill="#F2F2F2"/><text font-family="Calibri,Calibri_MSFontService,sans-serif" font-weight="400" font-size="60" transform="matrix(1 0 0 1 3263.55 1796)">Nassau</text><rect x="3239.5" y="1985.5" width="446" height="223" stroke="#FFFFFF" stroke-width="9.16667" stroke-linejoin="round" stroke-miterlimit="10" fill="#E46C0A"/><text fill="#FFFFFF" font-family="Calibri,Calibri_MSFontService,sans-serif" font-weight="400" font-size="60" transform="matrix(1 0 0 1 3277.92 2113)">Orange</text><text fill="#FFFFFF" font-family="Calibri,Calibri_MSFontService,sans-serif" font-weight="400" font-size="60" transform="matrix(1 0 0 1 3453.95 2113)">-</text><text fill="#FFFFFF" font-family="Calibri,Calibri_MSFontService,sans-serif" font-weight="400" font-size="60" transform="matrix(1 0 0 1 3472.19 2113)">Nassau</text><rect x="3778.5" y="1352.5" width="446" height="223" stroke="#FFFFFF" stroke-width="9.16667" stroke-linejoin="round" stroke-miterlimit="10" fill="#FFFFFF"/><text font-family="Calibri,Calibri_MSFontService,sans-serif" font-weight="400" font-size="60" transform="matrix(1 0 0 1 3824.17 1447)">Alan </text><text font-family="Calibri,Calibri_MSFontService,sans-serif" font-weight="400" font-size="60" transform="matrix(1 0 0 1 3945.63 1447)">fitz</text><text font-family="Calibri,Calibri_MSFontService,sans-serif" font-weight="400" font-size="60" transform="matrix(1 0 0 1 4034.45 1447)">Flaad</text><text font-family="Calibri,Calibri_MSFontService,sans-serif" font-weight="400" font-size="60" transform="matrix(1 0 0 1 4163.89 1447)">, </text><text font-family="Calibri,Calibri_MSFontService,sans-serif" font-weight="400" font-size="60" transform="matrix(1 0 0 1 3881.35 1513)">died 1121</text><rect x="3778" y="1669" width="446" height="223" fill="#F2F2F2"/><text font-family="Calibri,Calibri_MSFontService,sans-serif" font-weight="400" font-size="60" transform="matrix(1 0 0 1 3905.19 1796)">FitzAlan</text><rect x="3778" y="1985" width="446" height="223" fill="#F2F2F2"/><text font-family="Calibri,Calibri_MSFontService,sans-serif" font-weight="400" font-size="60" transform="matrix(1 0 0 1 3848.46 2113)">Clan Stewart</text><rect x="3890.5" y="2302.5" width="446" height="223" stroke="#FFFFFF" stroke-width="9.16667" stroke-linejoin="round" stroke-miterlimit="10" fill="#604A7B"/><text fill="#FFFFFF" font-family="Calibri,Calibri_MSFontService,sans-serif" font-weight="400" font-size="60" transform="matrix(1 0 0 1 4039.02 2430)">Stuart</text><rect x="4430.5" y="1352.5" width="446" height="223" stroke="#FFFFFF" stroke-width="9.16667" stroke-linejoin="round" stroke-miterlimit="10" fill="#FFFFFF"/><text font-family="Calibri,Calibri_MSFontService,sans-serif" font-weight="400" font-size="60" transform="matrix(1 0 0 1 4467.98 1414)">Edeco</text><text font-family="Calibri,Calibri_MSFontService,sans-serif" font-weight="400" font-size="60" transform="matrix(1 0 0 1 4626.74 1414)">(Legend) </text><text font-family="Calibri,Calibri_MSFontService,sans-serif" font-weight="400" font-size="60" transform="matrix(1 0 0 1 4540.21 1480)">died 469, </text><text font-family="Calibri,Calibri_MSFontService,sans-serif" font-weight="400" font-size="60" transform="matrix(1 0 0 1 4436.12 1545)">Ruthard</text><text font-family="Calibri,Calibri_MSFontService,sans-serif" font-weight="400" font-size="60" transform="matrix(1 0 0 1 4630.82 1545)">, died 790</text><rect x="4430" y="1669" width="446" height="223" fill="#F2F2F2"/><text font-family="Calibri,Calibri_MSFontService,sans-serif" font-weight="400" font-size="60" transform="matrix(1 0 0 1 4475.75 1764)">Elder House of </text><text font-family="Calibri,Calibri_MSFontService,sans-serif" font-weight="400" font-size="60" transform="matrix(1 0 0 1 4436.21 1830)">Welf</text><text font-family="Calibri,Calibri_MSFontService,sans-serif" font-weight="400" font-size="60" transform="matrix(1 0 0 1 4562.03 1830)">(</text><text font-family="Calibri,Calibri_MSFontService,sans-serif" font-weight="400" font-size="60" transform="matrix(1 0 0 1 4580.09 1830)">Rudolphins</text><text font-family="Calibri,Calibri_MSFontService,sans-serif" font-weight="400" font-size="60" transform="matrix(1 0 0 1 4851.05 1830)">)</text><rect x="4430" y="1985" width="446" height="223" fill="#F2F2F2"/><text font-family="Calibri,Calibri_MSFontService,sans-serif" font-weight="400" font-size="60" transform="matrix(1 0 0 1 4439.7 2080)">Younger House of </text><text font-family="Calibri,Calibri_MSFontService,sans-serif" font-weight="400" font-size="60" transform="matrix(1 0 0 1 4596.49 2146)">Welf</text><rect x="4430" y="2302" width="446" height="223" fill="#F2F2F2"/><text font-family="Calibri,Calibri_MSFontService,sans-serif" font-weight="400" font-size="60" transform="matrix(1 0 0 1 4519.87 2397)">Brunswick</text><text font-family="Calibri,Calibri_MSFontService,sans-serif" font-weight="400" font-size="60" transform="matrix(1 0 0 1 4767.21 2397)">-</text><text font-family="Calibri,Calibri_MSFontService,sans-serif" font-weight="400" font-size="60" transform="matrix(1 0 0 1 4538.71 2463)">Lüneburg</text><rect x="4541.5" y="2619.5" width="446" height="223" stroke="#FFFFFF" stroke-width="9.16667" stroke-linejoin="round" stroke-miterlimit="10" fill="#FF0101"/><text fill="#FFFFFF" font-family="Calibri,Calibri_MSFontService,sans-serif" font-weight="400" font-size="60" transform="matrix(1 0 0 1 4646.08 2746)">Hannover</text><rect x="4969.5" y="1352.5" width="446" height="223" stroke="#FFFFFF" stroke-width="9.16667" stroke-linejoin="round" stroke-miterlimit="10" fill="#FFFFFF"/><text font-family="Calibri,Calibri_MSFontService,sans-serif" font-weight="400" font-size="60" transform="matrix(1 0 0 1 4989.08 1447)">Theodoric I, died </text><text font-family="Calibri,Calibri_MSFontService,sans-serif" font-weight="400" font-size="60" transform="matrix(1 0 0 1 5147.05 1513)">975</text><rect x="4969" y="1669" width="446" height="223" fill="#F2F2F2"/><text font-family="Calibri,Calibri_MSFontService,sans-serif" font-weight="400" font-size="60" transform="matrix(1 0 0 1 5110.24 1796)">Wettin</text><rect x="4969" y="1985" width="446" height="223" fill="#F2F2F2"/><text font-family="Calibri,Calibri_MSFontService,sans-serif" font-weight="400" font-size="60" transform="matrix(1 0 0 1 5078.32 2113)">Ernestine</text><rect x="4969" y="2302" width="446" height="223" fill="#4A452A"/><text fill="#FFFFFF" font-family="Calibri,Calibri_MSFontService,sans-serif" font-weight="400" font-size="60" transform="matrix(1 0 0 1 4989.42 2397)">Saxe</text><text fill="#FFFFFF" font-family="Calibri,Calibri_MSFontService,sans-serif" font-weight="400" font-size="60" transform="matrix(1 0 0 1 5098.66 2397)">-</text><text fill="#FFFFFF" font-family="Calibri,Calibri_MSFontService,sans-serif" font-weight="400" font-size="60" transform="matrix(1 0 0 1 5116.9 2397)">Coburg and </text><text fill="#FFFFFF" font-family="Calibri,Calibri_MSFontService,sans-serif" font-weight="400" font-size="60" transform="matrix(1 0 0 1 5117.95 2463)">Gotha</text><rect x="5081.5" y="2619.5" width="446" height="223" stroke="#FFFFFF" stroke-width="9.16667" stroke-linejoin="round" stroke-miterlimit="10" fill="#31859C"/><text fill="#FFFFFF" font-family="Calibri,Calibri_MSFontService,sans-serif" font-weight="400" font-size="60" transform="matrix(1 0 0 1 5201.47 2746)">Windsor</text><rect x="5621.5" y="1352.5" width="446" height="223" stroke="#FFFFFF" stroke-width="9.16667" stroke-linejoin="round" stroke-miterlimit="10" fill="#FFFFFF"/><text font-family="Calibri,Calibri_MSFontService,sans-serif" font-weight="400" font-size="60" transform="matrix(1 0 0 1 5634.32 1414)">Elimar</text><text font-family="Calibri,Calibri_MSFontService,sans-serif" font-weight="400" font-size="60" transform="matrix(1 0 0 1 5801.16 1414)">I, Count of </text><text font-family="Calibri,Calibri_MSFontService,sans-serif" font-weight="400" font-size="60" transform="matrix(1 0 0 1 5648.1 1480)">Oldenburg, died </text><text font-family="Calibri,Calibri_MSFontService,sans-serif" font-weight="400" font-size="60" transform="matrix(1 0 0 1 5783.14 1545)">1112</text><rect x="5621" y="1669" width="446" height="223" fill="#F2F2F2"/><text font-family="Calibri,Calibri_MSFontService,sans-serif" font-weight="400" font-size="60" transform="matrix(1 0 0 1 5715.56 1796)">Oldenburg</text><rect x="5621" y="1985" width="446" height="223" fill="#F2F2F2"/><text font-family="Calibri,Calibri_MSFontService,sans-serif" font-weight="400" font-size="60" transform="matrix(1 0 0 1 5709.45 2113)">Glücksburg</text><rect x="5621" y="2302" width="446" height="223" fill="#F2F2F2"/><text font-family="Calibri,Calibri_MSFontService,sans-serif" font-weight="400" font-size="60" transform="matrix(1 0 0 1 5624.3 2364)">Glücksburg Cadet: </text><text font-family="Calibri,Calibri_MSFontService,sans-serif" font-weight="400" font-size="60" transform="matrix(1 0 0 1 5687.39 2430)">‘</text><text font-family="Calibri,Calibri_MSFontService,sans-serif" font-weight="400" font-size="60" transform="matrix(1 0 0 1 5702.26 2430)">Danish royal </text><text font-family="Calibri,Calibri_MSFontService,sans-serif" font-weight="400" font-size="60" transform="matrix(1 0 0 1 5626.02 2495)">family’ since 1863</text><rect x="5621.5" y="2619.5" width="446" height="223" stroke="#FFFFFF" stroke-width="9.16667" stroke-linejoin="round" stroke-miterlimit="10" fill="#F2F2F2"/><text font-family="Calibri,Calibri_MSFontService,sans-serif" font-weight="400" font-size="60" transform="matrix(1 0 0 1 5627.84 2681)">Glücksburg cadet: </text><text font-family="Calibri,Calibri_MSFontService,sans-serif" font-weight="400" font-size="60" transform="matrix(1 0 0 1 5698.33 2747)">‘Greek royal </text><text font-family="Calibri,Calibri_MSFontService,sans-serif" font-weight="400" font-size="60" transform="matrix(1 0 0 1 5626.03 2812)">family’ since 1863</text><rect x="5732.5" y="2935.5" width="446" height="223" stroke="#FFFFFF" stroke-width="9.16667" stroke-linejoin="round" stroke-miterlimit="10" fill="#00B050"/><text fill="#FFFFFF" font-family="Calibri,Calibri_MSFontService,sans-serif" font-weight="400" font-size="60" transform="matrix(1 0 0 1 5793.53 3063)">Mountbatten</text></g></svg>