<svg width="3781" height="7059" xmlns="http://www.w3.org/2000/svg" xmlns:xlink="http://www.w3.org/1999/xlink" xml:space="preserve" overflow="hidden"><g transform="translate(-1683 -1)"><path d="M2858.5 63.3001C2858.5 31.378 2884.38 5.5 2916.3 5.5L3667.7 5.5C3699.62 5.5 3725.5 31.378 3725.5 63.3001L3725.5 525.701C3725.5 557.623 3699.62 583.501 3667.7 583.501L2916.3 583.501C2884.38 583.501 2858.5 557.623 2858.5 525.701Z" stroke="#FFFFFF" stroke-width="9.16667" stroke-linejoin="round" stroke-miterlimit="10" fill="#4F81BD" fill-rule="evenodd"/><text fill="#FFFFFF" font-family="Calibri,Calibri_MSFontService,sans-serif" font-weight="400" font-size="138" transform="matrix(1 0 0 1 3012.75 257)">Alfred the </text><text fill="#FFFFFF" font-family="Calibri,Calibri_MSFontService,sans-serif" font-weight="400" font-size="138" transform="matrix(1 0 0 1 3135.6 408)">Great</text><path d="M3292 583.5 3292 814.654" stroke="#3D6696" stroke-width="9.16667" stroke-linejoin="round" stroke-miterlimit="10" fill="none" fill-rule="evenodd"/><path d="M2858.5 872.3C2858.5 840.378 2884.38 814.5 2916.3 814.5L3667.7 814.5C3699.62 814.5 3725.5 840.378 3725.5 872.3L3725.5 1334.7C3725.5 1366.62 3699.62 1392.5 3667.7 1392.5L2916.3 1392.5C2884.38 1392.5 2858.5 1366.62 2858.5 1334.7Z" stroke="#FFFFFF" stroke-width="9.16667" stroke-linejoin="round" stroke-miterlimit="10" fill="#4F81BD" fill-rule="evenodd"/><text fill="#FFFFFF" font-family="Calibri,Calibri_MSFontService,sans-serif" font-weight="400" font-size="138" transform="matrix(1 0 0 1 2973.54 1066)">Edward the </text><text fill="#FFFFFF" font-family="Calibri,Calibri_MSFontService,sans-serif" font-weight="400" font-size="138" transform="matrix(1 0 0 1 3147.93 1217)">Elder</text><path d="M3292.38 1392.5 3292.38 1508.08 2165.5 1508.08 2165.5 1623.65" stroke="#4774AB" stroke-width="9.16667" stroke-linejoin="round" stroke-miterlimit="10" fill="none" fill-rule="evenodd"/><path d="M1731.5 1681.3C1731.5 1649.38 1757.38 1623.5 1789.3 1623.5L2540.7 1623.5C2572.62 1623.5 2598.5 1649.38 2598.5 1681.3L2598.5 2143.7C2598.5 2175.62 2572.62 2201.5 2540.7 2201.5L1789.3 2201.5C1757.38 2201.5 1731.5 2175.62 1731.5 2143.7Z" stroke="#FFFFFF" stroke-width="9.16667" stroke-linejoin="round" stroke-miterlimit="10" fill="#4F81BD" fill-rule="evenodd"/><text fill="#FFFFFF" font-family="Calibri,Calibri_MSFontService,sans-serif" font-weight="400" font-size="138" transform="matrix(1 0 0 1 1864.57 1950)">Aethelstan</text><path d="M3292 1392.5 3292 1623.65" stroke="#4774AB" stroke-width="9.16667" stroke-linejoin="round" stroke-miterlimit="10" fill="none" fill-rule="evenodd"/><path d="M2858.5 1681.3C2858.5 1649.38 2884.38 1623.5 2916.3 1623.5L3667.7 1623.5C3699.62 1623.5 3725.5 1649.38 3725.5 1681.3L3725.5 2143.7C3725.5 2175.62 3699.62 2201.5 3667.7 2201.5L2916.3 2201.5C2884.38 2201.5 2858.5 2175.62 2858.5 2143.7Z" stroke="#FFFFFF" stroke-width="9.16667" stroke-linejoin="round" stroke-miterlimit="10" fill="#4F81BD" fill-rule="evenodd"/><text fill="#FFFFFF" font-family="Calibri,Calibri_MSFontService,sans-serif" font-weight="400" font-size="138" transform="matrix(1 0 0 1 3026.75 1950)">Edmund I</text><path d="M3291.94 2201.5 3291.94 2317.08 2728.5 2317.08 2728.5 2432.65" stroke="#4774AB" stroke-width="9.16667" stroke-linejoin="round" stroke-miterlimit="10" fill="none" fill-rule="evenodd"/><path d="M2295.5 2490.3C2295.5 2458.38 2321.38 2432.5 2353.3 2432.5L3104.7 2432.5C3136.62 2432.5 3162.5 2458.38 3162.5 2490.3L3162.5 2952.7C3162.5 2984.62 3136.62 3010.5 3104.7 3010.5L2353.3 3010.5C2321.38 3010.5 2295.5 2984.62 2295.5 2952.7Z" stroke="#FFFFFF" stroke-width="9.16667" stroke-linejoin="round" stroke-miterlimit="10" fill="#4F81BD" fill-rule="evenodd"/><text fill="#FFFFFF" font-family="Calibri,Calibri_MSFontService,sans-serif" font-weight="400" font-size="138" transform="matrix(1 0 0 1 2529.37 2759)">Eadwig</text><path d="M3292.5 2201.5 3292.5 2317.08 3855.94 2317.08 3855.94 2432.65" stroke="#4774AB" stroke-width="9.16667" stroke-linejoin="round" stroke-miterlimit="10" fill="none" fill-rule="evenodd"/><path d="M3422.5 2490.3C3422.5 2458.38 3448.38 2432.5 3480.3 2432.5L4230.7 2432.5C4262.62 2432.5 4288.5 2458.38 4288.5 2490.3L4288.5 2952.7C4288.5 2984.62 4262.62 3010.5 4230.7 3010.5L3480.3 3010.5C3448.38 3010.5 3422.5 2984.62 3422.5 2952.7Z" stroke="#FFFFFF" stroke-width="9.16667" stroke-linejoin="round" stroke-miterlimit="10" fill="#4F81BD" fill-rule="evenodd"/><text fill="#FFFFFF" font-family="Calibri,Calibri_MSFontService,sans-serif" font-weight="400" font-size="138" transform="matrix(1 0 0 1 3665.47 2759)">Edgar I</text><path d="M3855.94 3010.5 3855.94 3126.08 3292.5 3126.08 3292.5 3241.65" stroke="#4774AB" stroke-width="9.16667" stroke-linejoin="round" stroke-miterlimit="10" fill="none" fill-rule="evenodd"/><path d="M2858.5 3299.3C2858.5 3267.38 2884.38 3241.5 2916.3 3241.5L3667.7 3241.5C3699.62 3241.5 3725.5 3267.38 3725.5 3299.3L3725.5 3761.7C3725.5 3793.62 3699.62 3819.5 3667.7 3819.5L2916.3 3819.5C2884.38 3819.5 2858.5 3793.62 2858.5 3761.7Z" stroke="#FFFFFF" stroke-width="9.16667" stroke-linejoin="round" stroke-miterlimit="10" fill="#4F81BD" fill-rule="evenodd"/><text fill="#FFFFFF" font-family="Calibri,Calibri_MSFontService,sans-serif" font-weight="400" font-size="138" transform="matrix(1 0 0 1 2973.54 3493)">Edward the </text><text fill="#FFFFFF" font-family="Calibri,Calibri_MSFontService,sans-serif" font-weight="400" font-size="138" transform="matrix(1 0 0 1 3097.77 3644)">Martyr</text><path d="M3855.5 3010.5 3855.5 3126.08 4418.94 3126.08 4418.94 3241.65" stroke="#4774AB" stroke-width="9.16667" stroke-linejoin="round" stroke-miterlimit="10" fill="none" fill-rule="evenodd"/><path d="M3985.5 3299.3C3985.5 3267.38 4011.38 3241.5 4043.3 3241.5L4794.7 3241.5C4826.62 3241.5 4852.5 3267.38 4852.5 3299.3L4852.5 3761.7C4852.5 3793.62 4826.62 3819.5 4794.7 3819.5L4043.3 3819.5C4011.38 3819.5 3985.5 3793.62 3985.5 3761.7Z" stroke="#FFFFFF" stroke-width="9.16667" stroke-linejoin="round" stroke-miterlimit="10" fill="#4F81BD" fill-rule="evenodd"/><text fill="#FFFFFF" font-family="Calibri,Calibri_MSFontService,sans-serif" font-weight="400" font-size="138" transform="matrix(1 0 0 1 4142.3 3493)">Aethelred</text><text fill="#FFFFFF" font-family="Calibri,Calibri_MSFontService,sans-serif" font-weight="400" font-size="138" transform="matrix(1 0 0 1 4103 3644)">the Unread</text><path d="M4418.94 3819.5 4418.94 3935.08 3855.5 3935.08 3855.5 4050.65" stroke="#4774AB" stroke-width="9.16667" stroke-linejoin="round" stroke-miterlimit="10" fill="none" fill-rule="evenodd"/><path d="M3422.5 4108.3C3422.5 4076.38 3448.38 4050.5 3480.3 4050.5L4230.7 4050.5C4262.62 4050.5 4288.5 4076.38 4288.5 4108.3L4288.5 4570.7C4288.5 4602.62 4262.62 4628.5 4230.7 4628.5L3480.3 4628.5C3448.38 4628.5 3422.5 4602.62 3422.5 4570.7Z" stroke="#FFFFFF" stroke-width="9.16667" stroke-linejoin="round" stroke-miterlimit="10" fill="#4F81BD" fill-rule="evenodd"/><text fill="#FFFFFF" font-family="Calibri,Calibri_MSFontService,sans-serif" font-weight="400" font-size="138" transform="matrix(1 0 0 1 3572.86 4302)">Edmund II </text><text fill="#FFFFFF" font-family="Calibri,Calibri_MSFontService,sans-serif" font-weight="400" font-size="138" transform="matrix(1 0 0 1 3629.47 4453)">Ironside </text><path d="M3855 4628.5 3855 4859.65" stroke="#4774AB" stroke-width="9.16667" stroke-linejoin="round" stroke-miterlimit="10" fill="none" fill-rule="evenodd"/><path d="M3422.5 4917.3C3422.5 4885.38 3448.38 4859.5 3480.3 4859.5L4230.7 4859.5C4262.62 4859.5 4288.5 4885.38 4288.5 4917.3L4288.5 5379.7C4288.5 5411.62 4262.62 5437.5 4230.7 5437.5L3480.3 5437.5C3448.38 5437.5 3422.5 5411.62 3422.5 5379.7Z" stroke="#FFFFFF" stroke-width="9.16667" stroke-linejoin="round" stroke-miterlimit="10" fill="#FFFFFF" fill-rule="evenodd"/><text font-family="Calibri,Calibri_MSFontService,sans-serif" font-weight="400" font-size="138" transform="matrix(1 0 0 1 3536.97 5111)">Edward the </text><text font-family="Calibri,Calibri_MSFontService,sans-serif" font-weight="400" font-size="138" transform="matrix(1 0 0 1 3725.9 5262)">Exile</text><path d="M3855 5437.5 3855 5668.65" stroke="#4774AB" stroke-width="9.16667" stroke-linejoin="round" stroke-miterlimit="10" fill="none" fill-rule="evenodd"/><path d="M3422.5 5726.3C3422.5 5694.38 3448.38 5668.5 3480.3 5668.5L4230.7 5668.5C4262.62 5668.5 4288.5 5694.38 4288.5 5726.3L4288.5 6188.7C4288.5 6220.62 4262.62 6246.5 4230.7 6246.5L3480.3 6246.5C3448.38 6246.5 3422.5 6220.62 3422.5 6188.7Z" stroke="#FFFFFF" stroke-width="9.16667" stroke-linejoin="round" stroke-miterlimit="10" fill="#FFFFFF" fill-rule="evenodd"/><text font-family="Calibri,Calibri_MSFontService,sans-serif" font-weight="400" font-size="138" transform="matrix(1 0 0 1 3716.19 5844)">Saint </text><text font-family="Calibri,Calibri_MSFontService,sans-serif" font-weight="400" font-size="138" transform="matrix(1 0 0 1 3523.53 5995)">Margaret of </text><text font-family="Calibri,Calibri_MSFontService,sans-serif" font-weight="400" font-size="138" transform="matrix(1 0 0 1 3614.67 6146)">Scotland</text><path d="M3855 6246.5 3855 6477.65" stroke="#4774AB" stroke-width="9.16667" stroke-linejoin="round" stroke-miterlimit="10" fill="none" fill-rule="evenodd"/><path d="M3422.5 6535.3C3422.5 6503.38 3448.38 6477.5 3480.3 6477.5L4230.7 6477.5C4262.62 6477.5 4288.5 6503.38 4288.5 6535.3L4288.5 6997.7C4288.5 7029.62 4262.62 7055.5 4230.7 7055.5L3480.3 7055.5C3448.38 7055.5 3422.5 7029.62 3422.5 6997.7Z" stroke="#FFFFFF" stroke-width="9.16667" stroke-linejoin="round" stroke-miterlimit="10" fill="#FFFFFF" fill-rule="evenodd"/><text font-family="Calibri,Calibri_MSFontService,sans-serif" font-weight="400" font-size="138" transform="matrix(1 0 0 1 3567.52 6729)">Matilda of </text><text font-family="Calibri,Calibri_MSFontService,sans-serif" font-weight="400" font-size="138" transform="matrix(1 0 0 1 3614.68 6880)">Scotland</text><path d="M4418.5 3819.5 4418.5 3935.08 4981.94 3935.08 4981.94 4050.65" stroke="#4774AB" stroke-width="9.16667" stroke-linejoin="round" stroke-miterlimit="10" fill="none" fill-rule="evenodd"/><path d="M4548.5 4108.3C4548.5 4076.38 4574.38 4050.5 4606.3 4050.5L5357.7 4050.5C5389.62 4050.5 5415.5 4076.38 5415.5 4108.3L5415.5 4570.7C5415.5 4602.62 5389.62 4628.5 5357.7 4628.5L4606.3 4628.5C4574.38 4628.5 4548.5 4602.62 4548.5 4570.7Z" stroke="#FFFFFF" stroke-width="9.16667" stroke-linejoin="round" stroke-miterlimit="10" fill="#4F81BD" fill-rule="evenodd"/><text fill="#FFFFFF" font-family="Calibri,Calibri_MSFontService,sans-serif" font-weight="400" font-size="138" transform="matrix(1 0 0 1 4663.85 4302)">Edward the </text><text fill="#FFFFFF" font-family="Calibri,Calibri_MSFontService,sans-serif" font-weight="400" font-size="138" transform="matrix(1 0 0 1 4705.76 4453)">Confessor</text><path d="M3292.5 1392.5 3292.5 1508.08 4419.38 1508.08 4419.38 1623.65" stroke="#4774AB" stroke-width="9.16667" stroke-linejoin="round" stroke-miterlimit="10" fill="none" fill-rule="evenodd"/><path d="M3985.5 1681.3C3985.5 1649.38 4011.38 1623.5 4043.3 1623.5L4794.7 1623.5C4826.62 1623.5 4852.5 1649.38 4852.5 1681.3L4852.5 2143.7C4852.5 2175.62 4826.62 2201.5 4794.7 2201.5L4043.3 2201.5C4011.38 2201.5 3985.5 2175.62 3985.5 2143.7Z" stroke="#FFFFFF" stroke-width="9.16667" stroke-linejoin="round" stroke-miterlimit="10" fill="#4F81BD" fill-rule="evenodd"/><text fill="#FFFFFF" font-family="Calibri,Calibri_MSFontService,sans-serif" font-weight="400" font-size="138" transform="matrix(1 0 0 1 4223.58 1950)">Eadred</text><path d="M4570 6594.67C4570 6544.59 4610.59 6504 4660.67 6504L5312.33 6504C5362.41 6504 5403 6544.59 5403 6594.67L5403 6957.33C5403 7007.41 5362.41 7048 5312.33 7048L4660.67 7048C4610.59 7048 4570 7007.41 4570 6957.33Z" fill="#C00000" fill-rule="evenodd"/><text fill="#FFFFFF" font-family="Calibri,Calibri_MSFontService,sans-serif" font-weight="400" font-size="138" transform="matrix(1 0 0 1 4767.73 6739)">Henry I, </text><text fill="#FFFFFF" font-family="Calibri,Calibri_MSFontService,sans-serif" font-weight="400" font-size="138" transform="matrix(1 0 0 1 4679.98 6888)">‘Beauclerc’</text><path d="M0 0 285.859 0.000360892" stroke="#4A7EBB" stroke-width="10.3125" stroke-linejoin="round" stroke-miterlimit="10" fill="none" fill-rule="evenodd" transform="matrix(-1 0 0 1 4508.86 6781)"/></g></svg>