<svg width="7213" height="7147" xmlns="http://www.w3.org/2000/svg" xmlns:xlink="http://www.w3.org/1999/xlink" xml:space="preserve" overflow="hidden"><g transform="translate(-6 0)"><path d="M4497.5 1119.2C4497.5 1076.84 4531.84 1042.5 4574.2 1042.5L5570.8 1042.5C5613.16 1042.5 5647.5 1076.84 5647.5 1119.2L5647.5 1732.8C5647.5 1775.16 5613.16 1809.5 5570.8 1809.5L4574.2 1809.5C4531.84 1809.5 4497.5 1775.16 4497.5 1732.8Z" stroke="#FFFFFF" stroke-width="9.16667" stroke-linejoin="round" stroke-miterlimit="10" fill="#4F81BD" fill-rule="evenodd"/><text fill="#FFFFFF" font-family="Calibri,Calibri_MSFontService,sans-serif" font-weight="400" font-size="183" transform="matrix(1 0 0 1 4640.31 1376)">John II, ‘the </text><text fill="#FFFFFF" font-family="Calibri,Calibri_MSFontService,sans-serif" font-weight="400" font-size="183" transform="matrix(1 0 0 1 4861.84 1578)">good’</text><path d="M5072.23 1809.5 5072.23 1962.91 3576.5 1962.91 3576.5 2116.32" stroke="#3D6696" stroke-width="9.16667" stroke-linejoin="round" stroke-miterlimit="10" fill="none" fill-rule="evenodd"/><path d="M3001.5 2193.2C3001.5 2150.84 3035.84 2116.5 3078.2 2116.5L4075.8 2116.5C4118.16 2116.5 4152.5 2150.84 4152.5 2193.2L4152.5 2806.8C4152.5 2849.16 4118.16 2883.5 4075.8 2883.5L3078.2 2883.5C3035.84 2883.5 3001.5 2849.16 3001.5 2806.8Z" stroke="#FFFFFF" stroke-width="9.16667" stroke-linejoin="round" stroke-miterlimit="10" fill="#4F81BD" fill-rule="evenodd"/><text fill="#FFFFFF" font-family="Calibri,Calibri_MSFontService,sans-serif" font-weight="400" font-size="183" transform="matrix(1 0 0 1 3212.75 2450)">Charles V, </text><text fill="#FFFFFF" font-family="Calibri,Calibri_MSFontService,sans-serif" font-weight="400" font-size="183" transform="matrix(1 0 0 1 3217.38 2652)">‘the wise’</text><path d="M3577.23 2883.5 3577.23 3036.91 2081.5 3036.91 2081.5 3190.32" stroke="#4774AB" stroke-width="9.16667" stroke-linejoin="round" stroke-miterlimit="10" fill="none" fill-rule="evenodd"/><path d="M1505.5 3267.2C1505.5 3224.84 1539.84 3190.5 1582.2 3190.5L2579.8 3190.5C2622.16 3190.5 2656.5 3224.84 2656.5 3267.2L2656.5 3880.8C2656.5 3923.16 2622.16 3957.5 2579.8 3957.5L1582.2 3957.5C1539.84 3957.5 1505.5 3923.16 1505.5 3880.8Z" stroke="#FFFFFF" stroke-width="9.16667" stroke-linejoin="round" stroke-miterlimit="10" fill="#4F81BD" fill-rule="evenodd"/><text fill="#FFFFFF" font-family="Calibri,Calibri_MSFontService,sans-serif" font-weight="400" font-size="183" transform="matrix(1 0 0 1 1686.5 3524)">Charles VI, </text><text fill="#FFFFFF" font-family="Calibri,Calibri_MSFontService,sans-serif" font-weight="400" font-size="183" transform="matrix(1 0 0 1 1724.38 3726)">‘the mad’</text><path d="M2081.23 3957.5 2081.23 4110.91 585.5 4110.91 585.5 4264.32" stroke="#4774AB" stroke-width="9.16667" stroke-linejoin="round" stroke-miterlimit="10" fill="none" fill-rule="evenodd"/><path d="M10.5002 4341.2C10.5002 4298.84 44.8402 4264.5 87.2008 4264.5L1083.8 4264.5C1126.16 4264.5 1160.5 4298.84 1160.5 4341.2L1160.5 4954.8C1160.5 4997.16 1126.16 5031.5 1083.8 5031.5L87.2008 5031.5C44.8402 5031.5 10.5002 4997.16 10.5002 4954.8Z" stroke="#FFFFFF" stroke-width="9.16667" stroke-linejoin="round" stroke-miterlimit="10" fill="#4F81BD" fill-rule="evenodd"/><text fill="#FFFFFF" font-family="Calibri,Calibri_MSFontService,sans-serif" font-weight="400" font-size="183" transform="matrix(1 0 0 1 160.464 4598)">Louis, Duke </text><text fill="#FFFFFF" font-family="Calibri,Calibri_MSFontService,sans-serif" font-weight="400" font-size="183" transform="matrix(1 0 0 1 153.956 4800)">of Guyenne</text><path d="M2081 3957.5 2081 4264.32" stroke="#4774AB" stroke-width="9.16667" stroke-linejoin="round" stroke-miterlimit="10" fill="none" fill-rule="evenodd"/><path d="M1505.5 4341.2C1505.5 4298.84 1539.84 4264.5 1582.2 4264.5L2579.8 4264.5C2622.16 4264.5 2656.5 4298.84 2656.5 4341.2L2656.5 4954.8C2656.5 4997.16 2622.16 5031.5 2579.8 5031.5L1582.2 5031.5C1539.84 5031.5 1505.5 4997.16 1505.5 4954.8Z" stroke="#FFFFFF" stroke-width="9.16667" stroke-linejoin="round" stroke-miterlimit="10" fill="#4F81BD" fill-rule="evenodd"/><text fill="#FFFFFF" font-family="Calibri,Calibri_MSFontService,sans-serif" font-weight="400" font-size="183" transform="matrix(1 0 0 1 1663.4 4497)">Charles VII, </text><text fill="#FFFFFF" font-family="Calibri,Calibri_MSFontService,sans-serif" font-weight="400" font-size="183" transform="matrix(1 0 0 1 1933.27 4699)">‘the </text><text fill="#FFFFFF" font-family="Calibri,Calibri_MSFontService,sans-serif" font-weight="400" font-size="183" transform="matrix(1 0 0 1 1693.03 4900)">victorious’</text><path d="M2081.5 3957.5 2081.5 4110.91 3577.23 4110.91 3577.23 4264.32" stroke="#4774AB" stroke-width="9.16667" stroke-linejoin="round" stroke-miterlimit="10" fill="none" fill-rule="evenodd"/><path d="M3001.5 4341.2C3001.5 4298.84 3035.84 4264.5 3078.2 4264.5L4075.8 4264.5C4118.16 4264.5 4152.5 4298.84 4152.5 4341.2L4152.5 4954.8C4152.5 4997.16 4118.16 5031.5 4075.8 5031.5L3078.2 5031.5C3035.84 5031.5 3001.5 4997.16 3001.5 4954.8Z" stroke="#FFFFFF" stroke-width="9.16667" stroke-linejoin="round" stroke-miterlimit="10" fill="#FFFFFF" fill-rule="evenodd"/><text font-family="Calibri,Calibri_MSFontService,sans-serif" font-weight="400" font-size="183" transform="matrix(1 0 0 1 3116.13 4598)">Catherine of </text><text font-family="Calibri,Calibri_MSFontService,sans-serif" font-weight="400" font-size="183" transform="matrix(1 0 0 1 3359.25 4800)">Valois</text><path d="M3577 5031.5 3577 5338.32" stroke="#4774AB" stroke-width="9.16667" stroke-linejoin="round" stroke-miterlimit="10" fill="none" fill-rule="evenodd"/><path d="M3001.5 5414.3C3001.5 5371.88 3035.88 5337.5 3078.3 5337.5L4075.7 5337.5C4118.12 5337.5 4152.5 5371.88 4152.5 5414.3L4152.5 6028.7C4152.5 6071.12 4118.12 6105.5 4075.7 6105.5L3078.3 6105.5C3035.88 6105.5 3001.5 6071.12 3001.5 6028.7Z" stroke="#FFFFFF" stroke-width="9.16667" stroke-linejoin="round" stroke-miterlimit="10" fill="#953735" fill-rule="evenodd"/><text fill="#FFFFFF" font-family="Calibri,Calibri_MSFontService,sans-serif" font-weight="400" font-size="183" transform="matrix(1 0 0 1 3158.69 5672)">Henry VI of </text><text fill="#FFFFFF" font-family="Calibri,Calibri_MSFontService,sans-serif" font-weight="400" font-size="183" transform="matrix(1 0 0 1 3279.01 5874)">England</text><path d="M3576.5 2883.5 3576.5 3036.91 5072.23 3036.91 5072.23 3190.32" stroke="#4774AB" stroke-width="9.16667" stroke-linejoin="round" stroke-miterlimit="10" fill="none" fill-rule="evenodd"/><path d="M4497.5 3267.2C4497.5 3224.84 4531.84 3190.5 4574.2 3190.5L5570.8 3190.5C5613.16 3190.5 5647.5 3224.84 5647.5 3267.2L5647.5 3880.8C5647.5 3923.16 5613.16 3957.5 5570.8 3957.5L4574.2 3957.5C4531.84 3957.5 4497.5 3923.16 4497.5 3880.8Z" stroke="#FFFFFF" stroke-width="9.16667" stroke-linejoin="round" stroke-miterlimit="10" fill="#17375E" fill-rule="evenodd"/><text fill="#FFFFFF" font-family="Calibri,Calibri_MSFontService,sans-serif" font-weight="400" font-size="183" transform="matrix(1 0 0 1 4603.83 3524)">Louis I, Duke </text><text fill="#FFFFFF" font-family="Calibri,Calibri_MSFontService,sans-serif" font-weight="400" font-size="183" transform="matrix(1 0 0 1 4687.8 3726)">of Orleans</text><path d="M5073 3957.5 5073 4264.32" stroke="#4774AB" stroke-width="9.16667" stroke-linejoin="round" stroke-miterlimit="10" fill="none" fill-rule="evenodd"/><path d="M4497.5 4341.2C4497.5 4298.84 4531.84 4264.5 4574.2 4264.5L5570.8 4264.5C5613.16 4264.5 5647.5 4298.84 5647.5 4341.2L5647.5 4954.8C5647.5 4997.16 5613.16 5031.5 5570.8 5031.5L4574.2 5031.5C4531.84 5031.5 4497.5 4997.16 4497.5 4954.8Z" stroke="#FFFFFF" stroke-width="9.16667" stroke-linejoin="round" stroke-miterlimit="10" fill="#17375E" fill-rule="evenodd"/><text fill="#FFFFFF" font-family="Calibri,Calibri_MSFontService,sans-serif" font-weight="400" font-size="183" transform="matrix(1 0 0 1 4699.62 4598)">Charles of </text><text fill="#FFFFFF" font-family="Calibri,Calibri_MSFontService,sans-serif" font-weight="400" font-size="183" transform="matrix(1 0 0 1 4784.85 4800)">Orléans</text><path d="M5072.5 1809.5 5072.5 1962.91 6568.23 1962.91 6568.23 2116.32" stroke="#3D6696" stroke-width="9.16667" stroke-linejoin="round" stroke-miterlimit="10" fill="none" fill-rule="evenodd"/><path d="M5993.5 2193.2C5993.5 2150.84 6027.84 2116.5 6070.2 2116.5L7066.8 2116.5C7109.16 2116.5 7143.5 2150.84 7143.5 2193.2L7143.5 2806.8C7143.5 2849.16 7109.16 2883.5 7066.8 2883.5L6070.2 2883.5C6027.84 2883.5 5993.5 2849.16 5993.5 2806.8Z" stroke="#FFFFFF" stroke-width="9.16667" stroke-linejoin="round" stroke-miterlimit="10" fill="#632523" fill-rule="evenodd"/><text fill="#FFFFFF" font-family="Calibri,Calibri_MSFontService,sans-serif" font-weight="400" font-size="183" transform="matrix(1 0 0 1 6148.88 2349)">Philip II the </text><text fill="#FFFFFF" font-family="Calibri,Calibri_MSFontService,sans-serif" font-weight="400" font-size="183" transform="matrix(1 0 0 1 6070.87 2551)">Bold, Duke of </text><text fill="#FFFFFF" font-family="Calibri,Calibri_MSFontService,sans-serif" font-weight="400" font-size="183" transform="matrix(1 0 0 1 6209.93 2752)">Burgundy</text><path d="M6568 2883.5 6568 3190.32" stroke="#4774AB" stroke-width="9.16667" stroke-linejoin="round" stroke-miterlimit="10" fill="none" fill-rule="evenodd"/><path d="M5993.5 3267.2C5993.5 3224.84 6027.84 3190.5 6070.2 3190.5L7066.8 3190.5C7109.16 3190.5 7143.5 3224.84 7143.5 3267.2L7143.5 3880.8C7143.5 3923.16 7109.16 3957.5 7066.8 3957.5L6070.2 3957.5C6027.84 3957.5 5993.5 3923.16 5993.5 3880.8Z" stroke="#FFFFFF" stroke-width="9.16667" stroke-linejoin="round" stroke-miterlimit="10" fill="#632523" fill-rule="evenodd"/><text fill="#FFFFFF" font-family="Calibri,Calibri_MSFontService,sans-serif" font-weight="400" font-size="183" transform="matrix(1 0 0 1 6204.88 3423)">John I the </text><text fill="#FFFFFF" font-family="Calibri,Calibri_MSFontService,sans-serif" font-weight="400" font-size="183" transform="matrix(1 0 0 1 6147.29 3625)">Fearless, of </text><text fill="#FFFFFF" font-family="Calibri,Calibri_MSFontService,sans-serif" font-weight="400" font-size="183" transform="matrix(1 0 0 1 6209.94 3826)">Burgundy</text><path d="M6568 3957.5 6568 4264.32" stroke="#4774AB" stroke-width="9.16667" stroke-linejoin="round" stroke-miterlimit="10" fill="none" fill-rule="evenodd"/><path d="M5993.5 4341.2C5993.5 4298.84 6027.84 4264.5 6070.2 4264.5L7066.8 4264.5C7109.16 4264.5 7143.5 4298.84 7143.5 4341.2L7143.5 4954.8C7143.5 4997.16 7109.16 5031.5 7066.8 5031.5L6070.2 5031.5C6027.84 5031.5 5993.5 4997.16 5993.5 4954.8Z" stroke="#FFFFFF" stroke-width="9.16667" stroke-linejoin="round" stroke-miterlimit="10" fill="#632523" fill-rule="evenodd"/><text fill="#FFFFFF" font-family="Calibri,Calibri_MSFontService,sans-serif" font-weight="400" font-size="183" transform="matrix(1 0 0 1 6125.78 4497)">Philip III the </text><text fill="#FFFFFF" font-family="Calibri,Calibri_MSFontService,sans-serif" font-weight="400" font-size="183" transform="matrix(1 0 0 1 6245.2 4699)">Good, of </text><text fill="#FFFFFF" font-family="Calibri,Calibri_MSFontService,sans-serif" font-weight="400" font-size="183" transform="matrix(1 0 0 1 6209.93 4900)">Burgundy</text></g></svg>