<svg width="7158" height="7147" xmlns="http://www.w3.org/2000/svg" xmlns:xlink="http://www.w3.org/1999/xlink" xml:space="preserve" overflow="hidden"><g transform="translate(-3 0)"><path d="M4257.5 1075.7C4257.5 1049.63 4278.63 1028.5 4304.7 1028.5L4917.3 1028.5C4943.37 1028.5 4964.5 1049.63 4964.5 1075.7L4964.5 1453.3C4964.5 1479.37 4943.37 1500.5 4917.3 1500.5L4304.7 1500.5C4278.63 1500.5 4257.5 1479.37 4257.5 1453.3Z" stroke="#FFFFFF" stroke-width="9.16667" stroke-linejoin="round" stroke-miterlimit="10" fill="#4F81BD" fill-rule="evenodd"/><text fill="#FFFFFF" font-family="Calibri,Calibri_MSFontService,sans-serif" font-weight="400" font-size="110" transform="matrix(1 0 0 1 4432.09 1211)">Philip III</text><text fill="#FFFFFF" font-family="Calibri,Calibri_MSFontService,sans-serif" font-weight="400" font-size="110" transform="matrix(1 0 0 1 4450.9 1379)">‘Le bel’</text><path d="M4610.56 1500.5 4610.56 1594.75 2887.5 1594.75 2887.5 1689.01" stroke="#3D6696" stroke-width="9.16667" stroke-linejoin="round" stroke-miterlimit="10" fill="none" fill-rule="evenodd"/><path d="M2534.5 1735.6C2534.5 1709.59 2555.59 1688.5 2581.6 1688.5L3194.4 1688.5C3220.41 1688.5 3241.5 1709.59 3241.5 1735.6L3241.5 2112.4C3241.5 2138.41 3220.41 2159.5 3194.4 2159.5L2581.6 2159.5C2555.59 2159.5 2534.5 2138.41 2534.5 2112.4Z" stroke="#FFFFFF" stroke-width="9.16667" stroke-linejoin="round" stroke-miterlimit="10" fill="#4F81BD" fill-rule="evenodd"/><text fill="#FFFFFF" font-family="Calibri,Calibri_MSFontService,sans-serif" font-weight="400" font-size="110" transform="matrix(1 0 0 1 2705.53 1954)">Philip IV</text><path d="M2887.17 2159.5 2887.17 2253.75 819.5 2253.75 819.5 2348.01" stroke="#4774AB" stroke-width="9.16667" stroke-linejoin="round" stroke-miterlimit="10" fill="none" fill-rule="evenodd"/><path d="M466.5 2395.6C466.5 2369.59 487.587 2348.5 513.6 2348.5L1126.4 2348.5C1152.41 2348.5 1173.5 2369.59 1173.5 2395.6L1173.5 2772.4C1173.5 2798.41 1152.41 2819.5 1126.4 2819.5L513.6 2819.5C487.587 2819.5 466.5 2798.41 466.5 2772.4Z" stroke="#FFFFFF" stroke-width="9.16667" stroke-linejoin="round" stroke-miterlimit="10" fill="#4F81BD" fill-rule="evenodd"/><text fill="#FFFFFF" font-family="Calibri,Calibri_MSFontService,sans-serif" font-weight="400" font-size="110" transform="matrix(1 0 0 1 663.307 2614)">Louis X</text><path d="M819.983 2819.5 819.983 2913.75 360.5 2913.75 360.5 3008.01" stroke="#4774AB" stroke-width="9.16667" stroke-linejoin="round" stroke-miterlimit="10" fill="none" fill-rule="evenodd"/><path d="M7.50007 3055.6C7.50007 3029.59 28.5874 3008.5 54.5999 3008.5L666.4 3008.5C692.413 3008.5 713.5 3029.59 713.5 3055.6L713.5 3432.4C713.5 3458.41 692.413 3479.5 666.4 3479.5L54.5999 3479.5C28.5874 3479.5 7.50007 3458.41 7.50007 3432.4Z" stroke="#FFFFFF" stroke-width="9.16667" stroke-linejoin="round" stroke-miterlimit="10" fill="#4F81BD" fill-rule="evenodd"/><text fill="#FFFFFF" font-family="Calibri,Calibri_MSFontService,sans-serif" font-weight="400" font-size="110" transform="matrix(1 0 0 1 71.8925 3214)">John I, Infant </text><text fill="#FFFFFF" font-family="Calibri,Calibri_MSFontService,sans-serif" font-weight="400" font-size="110" transform="matrix(1 0 0 1 230.545 3335)">death</text><path d="M819.5 2819.5 819.5 2913.75 1278.98 2913.75 1278.98 3008.01" stroke="#4774AB" stroke-width="9.16667" stroke-linejoin="round" stroke-miterlimit="10" fill="none" fill-rule="evenodd"/><path d="M925.5 3055.6C925.5 3029.59 946.587 3008.5 972.6 3008.5L1585.4 3008.5C1611.41 3008.5 1632.5 3029.59 1632.5 3055.6L1632.5 3432.4C1632.5 3458.41 1611.41 3479.5 1585.4 3479.5L972.6 3479.5C946.587 3479.5 925.5 3458.41 925.5 3432.4Z" stroke="#FFFFFF" stroke-width="9.16667" stroke-linejoin="round" stroke-miterlimit="10" fill="#FFFFFF" fill-rule="evenodd"/><text font-family="Calibri,Calibri_MSFontService,sans-serif" font-weight="400" font-size="110" transform="matrix(1 0 0 1 1078.79 3214)">Joan II of </text><text font-family="Calibri,Calibri_MSFontService,sans-serif" font-weight="400" font-size="110" transform="matrix(1 0 0 1 1102.62 3335)">Navarre</text><path d="M2887.24 2159.5 2887.24 2253.75 2657.5 2253.75 2657.5 2348.01" stroke="#4774AB" stroke-width="9.16667" stroke-linejoin="round" stroke-miterlimit="10" fill="none" fill-rule="evenodd"/><path d="M2304.5 2395.6C2304.5 2369.59 2325.59 2348.5 2351.6 2348.5L2964.4 2348.5C2990.41 2348.5 3011.5 2369.59 3011.5 2395.6L3011.5 2772.4C3011.5 2798.41 2990.41 2819.5 2964.4 2819.5L2351.6 2819.5C2325.59 2819.5 2304.5 2798.41 2304.5 2772.4Z" stroke="#FFFFFF" stroke-width="9.16667" stroke-linejoin="round" stroke-miterlimit="10" fill="#4F81BD" fill-rule="evenodd"/><text fill="#FFFFFF" font-family="Calibri,Calibri_MSFontService,sans-serif" font-weight="400" font-size="110" transform="matrix(1 0 0 1 2379.53 2554)">Philip V, ‘the </text><text fill="#FFFFFF" font-family="Calibri,Calibri_MSFontService,sans-serif" font-weight="400" font-size="110" transform="matrix(1 0 0 1 2574.3 2675)">tall’</text><path d="M2657.98 2819.5 2657.98 2913.75 2198.5 2913.75 2198.5 3008.01" stroke="#4774AB" stroke-width="9.16667" stroke-linejoin="round" stroke-miterlimit="10" fill="none" fill-rule="evenodd"/><path d="M1844.5 3055.6C1844.5 3029.59 1865.59 3008.5 1891.6 3008.5L2504.4 3008.5C2530.41 3008.5 2551.5 3029.59 2551.5 3055.6L2551.5 3432.4C2551.5 3458.41 2530.41 3479.5 2504.4 3479.5L1891.6 3479.5C1865.59 3479.5 1844.5 3458.41 1844.5 3432.4Z" stroke="#FFFFFF" stroke-width="9.16667" stroke-linejoin="round" stroke-miterlimit="10" fill="#FFFFFF" fill-rule="evenodd"/><text font-family="Calibri,Calibri_MSFontService,sans-serif" font-weight="400" font-size="110" transform="matrix(1 0 0 1 1983.89 3214)">Joan III of </text><text font-family="Calibri,Calibri_MSFontService,sans-serif" font-weight="400" font-size="110" transform="matrix(1 0 0 1 1983.18 3335)">Burgundy</text><path d="M2657.5 2819.5 2657.5 2913.75 3116.98 2913.75 3116.98 3008.01" stroke="#4774AB" stroke-width="9.16667" stroke-linejoin="round" stroke-miterlimit="10" fill="none" fill-rule="evenodd"/><path d="M2763.5 3055.6C2763.5 3029.59 2784.59 3008.5 2810.6 3008.5L3423.4 3008.5C3449.41 3008.5 3470.5 3029.59 3470.5 3055.6L3470.5 3432.4C3470.5 3458.41 3449.41 3479.5 3423.4 3479.5L2810.6 3479.5C2784.59 3479.5 2763.5 3458.41 2763.5 3432.4Z" stroke="#FFFFFF" stroke-width="9.16667" stroke-linejoin="round" stroke-miterlimit="10" fill="#FFFFFF" fill-rule="evenodd"/><text font-family="Calibri,Calibri_MSFontService,sans-serif" font-weight="400" font-size="110" transform="matrix(1 0 0 1 2932.55 3153)">Isabelle, </text><text font-family="Calibri,Calibri_MSFontService,sans-serif" font-weight="400" font-size="110" transform="matrix(1 0 0 1 2842.87 3274)">Dauphine of </text><text font-family="Calibri,Calibri_MSFontService,sans-serif" font-weight="400" font-size="110" transform="matrix(1 0 0 1 2924.73 3395)">Viennois</text><path d="M2887.5 2159.5 2887.5 2253.75 4036.21 2253.75 4036.21 2348.01" stroke="#4774AB" stroke-width="9.16667" stroke-linejoin="round" stroke-miterlimit="10" fill="none" fill-rule="evenodd"/><path d="M3682.5 2395.6C3682.5 2369.59 3703.59 2348.5 3729.6 2348.5L4342.4 2348.5C4368.41 2348.5 4389.5 2369.59 4389.5 2395.6L4389.5 2772.4C4389.5 2798.41 4368.41 2819.5 4342.4 2819.5L3729.6 2819.5C3703.59 2819.5 3682.5 2798.41 3682.5 2772.4Z" stroke="#FFFFFF" stroke-width="9.16667" stroke-linejoin="round" stroke-miterlimit="10" fill="#4F81BD" fill-rule="evenodd"/><text fill="#FFFFFF" font-family="Calibri,Calibri_MSFontService,sans-serif" font-weight="400" font-size="110" transform="matrix(1 0 0 1 3803.84 2554)">Charles IV, </text><text fill="#FFFFFF" font-family="Calibri,Calibri_MSFontService,sans-serif" font-weight="400" font-size="110" transform="matrix(1 0 0 1 3823.45 2675)">‘the Bald’</text><path d="M4036 2819.5 4036 3008.01" stroke="#4774AB" stroke-width="9.16667" stroke-linejoin="round" stroke-miterlimit="10" fill="none" fill-rule="evenodd"/><path d="M3682.5 3055.6C3682.5 3029.59 3703.59 3008.5 3729.6 3008.5L4342.4 3008.5C4368.41 3008.5 4389.5 3029.59 4389.5 3055.6L4389.5 3432.4C4389.5 3458.41 4368.41 3479.5 4342.4 3479.5L3729.6 3479.5C3703.59 3479.5 3682.5 3458.41 3682.5 3432.4Z" stroke="#FFFFFF" stroke-width="9.16667" stroke-linejoin="round" stroke-miterlimit="10" fill="#FFFFFF" fill-rule="evenodd"/><text font-family="Calibri,Calibri_MSFontService,sans-serif" font-weight="400" font-size="110" transform="matrix(1 0 0 1 3844.79 3153)">Blanche, </text><text font-family="Calibri,Calibri_MSFontService,sans-serif" font-weight="400" font-size="110" transform="matrix(1 0 0 1 3792.33 3274)">Duchess of </text><text font-family="Calibri,Calibri_MSFontService,sans-serif" font-weight="400" font-size="110" transform="matrix(1 0 0 1 3863.49 3395)">Orleans</text><path d="M2887.5 2159.5 2887.5 2253.75 4955.17 2253.75 4955.17 2348.01" stroke="#4774AB" stroke-width="9.16667" stroke-linejoin="round" stroke-miterlimit="10" fill="none" fill-rule="evenodd"/><path d="M4601.5 2395.6C4601.5 2369.59 4622.59 2348.5 4648.6 2348.5L5261.4 2348.5C5287.41 2348.5 5308.5 2369.59 5308.5 2395.6L5308.5 2772.4C5308.5 2798.41 5287.41 2819.5 5261.4 2819.5L4648.6 2819.5C4622.59 2819.5 4601.5 2798.41 4601.5 2772.4Z" stroke="#FFFFFF" stroke-width="9.16667" stroke-linejoin="round" stroke-miterlimit="10" fill="#FFFFFF" fill-rule="evenodd"/><text font-family="Calibri,Calibri_MSFontService,sans-serif" font-weight="400" font-size="110" transform="matrix(1 0 0 1 4771.5 2493)">Isabella, </text><text font-family="Calibri,Calibri_MSFontService,sans-serif" font-weight="400" font-size="110" transform="matrix(1 0 0 1 4687.26 2614)">‘She</text><text font-family="Calibri,Calibri_MSFontService,sans-serif" font-weight="400" font-size="110" transform="matrix(1 0 0 1 4877.77 2614)">-</text><text font-family="Calibri,Calibri_MSFontService,sans-serif" font-weight="400" font-size="110" transform="matrix(1 0 0 1 4911.45 2614)">wolf of </text><text font-family="Calibri,Calibri_MSFontService,sans-serif" font-weight="400" font-size="110" transform="matrix(1 0 0 1 4791.87 2735)">France’</text><path d="M4955 2819.5 4955 3008.01" stroke="#4774AB" stroke-width="9.16667" stroke-linejoin="round" stroke-miterlimit="10" fill="none" fill-rule="evenodd"/><path d="M4601.5 3055.6C4601.5 3029.59 4622.59 3008.5 4648.6 3008.5L5261.4 3008.5C5287.41 3008.5 5308.5 3029.59 5308.5 3055.6L5308.5 3432.4C5308.5 3458.41 5287.41 3479.5 5261.4 3479.5L4648.6 3479.5C4622.59 3479.5 4601.5 3458.41 4601.5 3432.4Z" stroke="#FFFFFF" stroke-width="9.16667" stroke-linejoin="round" stroke-miterlimit="10" fill="#B84542" fill-rule="evenodd"/><text fill="#FFFFFF" font-family="Calibri,Calibri_MSFontService,sans-serif" font-weight="400" font-size="110" transform="matrix(1 0 0 1 4675.27 3214)">Edward III of </text><text fill="#FFFFFF" font-family="Calibri,Calibri_MSFontService,sans-serif" font-weight="400" font-size="110" transform="matrix(1 0 0 1 4765.75 3335)">Windsor</text><path d="M4610.5 1500.5 4610.5 1594.75 6333.56 1594.75 6333.56 1689.01" stroke="#3D6696" stroke-width="9.16667" stroke-linejoin="round" stroke-miterlimit="10" fill="none" fill-rule="evenodd"/><path d="M5980.5 1735.6C5980.5 1709.59 6001.59 1688.5 6027.6 1688.5L6640.4 1688.5C6666.41 1688.5 6687.5 1709.59 6687.5 1735.6L6687.5 2112.4C6687.5 2138.41 6666.41 2159.5 6640.4 2159.5L6027.6 2159.5C6001.59 2159.5 5980.5 2138.41 5980.5 2112.4Z" stroke="#FFFFFF" stroke-width="9.16667" stroke-linejoin="round" stroke-miterlimit="10" fill="#FFFFFF" fill-rule="evenodd"/><text font-family="Calibri,Calibri_MSFontService,sans-serif" font-weight="400" font-size="110" transform="matrix(1 0 0 1 6109.79 1894)">Charles of </text><text font-family="Calibri,Calibri_MSFontService,sans-serif" font-weight="400" font-size="110" transform="matrix(1 0 0 1 6202.99 2015)">Valois</text><path d="M6334 2159.5 6334 2348.01" stroke="#4774AB" stroke-width="9.16667" stroke-linejoin="round" stroke-miterlimit="10" fill="none" fill-rule="evenodd"/><path d="M5980.5 2395.6C5980.5 2369.59 6001.59 2348.5 6027.6 2348.5L6640.4 2348.5C6666.41 2348.5 6687.5 2369.59 6687.5 2395.6L6687.5 2772.4C6687.5 2798.41 6666.41 2819.5 6640.4 2819.5L6027.6 2819.5C6001.59 2819.5 5980.5 2798.41 5980.5 2772.4Z" stroke="#FFFFFF" stroke-width="9.16667" stroke-linejoin="round" stroke-miterlimit="10" fill="#4F81BD" fill-rule="evenodd"/><text fill="#FFFFFF" font-family="Calibri,Calibri_MSFontService,sans-serif" font-weight="400" font-size="110" transform="matrix(1 0 0 1 6037.09 2554)">Philip VI, ‘the </text><text fill="#FFFFFF" font-family="Calibri,Calibri_MSFontService,sans-serif" font-weight="400" font-size="110" transform="matrix(1 0 0 1 6108.47 2675)">fortunate’</text><path d="M6334 2819.5 6334 3008.01" stroke="#4774AB" stroke-width="9.16667" stroke-linejoin="round" stroke-miterlimit="10" fill="none" fill-rule="evenodd"/><path d="M5980.5 3055.6C5980.5 3029.59 6001.59 3008.5 6027.6 3008.5L6640.4 3008.5C6666.41 3008.5 6687.5 3029.59 6687.5 3055.6L6687.5 3432.4C6687.5 3458.41 6666.41 3479.5 6640.4 3479.5L6027.6 3479.5C6001.59 3479.5 5980.5 3458.41 5980.5 3432.4Z" stroke="#FFFFFF" stroke-width="9.16667" stroke-linejoin="round" stroke-miterlimit="10" fill="#4F81BD" fill-rule="evenodd"/><text fill="#FFFFFF" font-family="Calibri,Calibri_MSFontService,sans-serif" font-weight="400" font-size="110" transform="matrix(1 0 0 1 6074.2 3214)">John II, ‘the </text><text fill="#FFFFFF" font-family="Calibri,Calibri_MSFontService,sans-serif" font-weight="400" font-size="110" transform="matrix(1 0 0 1 6207.12 3335)">good’</text><path d="M6334 3479.5 6334 3668.01" stroke="#4774AB" stroke-width="9.16667" stroke-linejoin="round" stroke-miterlimit="10" fill="none" fill-rule="evenodd"/><path d="M5980.5 3715.6C5980.5 3689.59 6001.59 3668.5 6027.6 3668.5L6640.4 3668.5C6666.41 3668.5 6687.5 3689.59 6687.5 3715.6L6687.5 4092.4C6687.5 4118.41 6666.41 4139.5 6640.4 4139.5L6027.6 4139.5C6001.59 4139.5 5980.5 4118.41 5980.5 4092.4Z" stroke="#FFFFFF" stroke-width="9.16667" stroke-linejoin="round" stroke-miterlimit="10" fill="#4F81BD" fill-rule="evenodd"/><text fill="#FFFFFF" font-family="Calibri,Calibri_MSFontService,sans-serif" font-weight="400" font-size="110" transform="matrix(1 0 0 1 6115.11 3873)">Charles V, </text><text fill="#FFFFFF" font-family="Calibri,Calibri_MSFontService,sans-serif" font-weight="400" font-size="110" transform="matrix(1 0 0 1 6117.86 3994)">‘the wise’</text><path d="M6334 4139.5 6334 4328.01" stroke="#4774AB" stroke-width="9.16667" stroke-linejoin="round" stroke-miterlimit="10" fill="none" fill-rule="evenodd"/><path d="M5980.5 4374.7C5980.5 4348.63 6001.63 4327.5 6027.7 4327.5L6640.3 4327.5C6666.37 4327.5 6687.5 4348.63 6687.5 4374.7L6687.5 4752.3C6687.5 4778.37 6666.37 4799.5 6640.3 4799.5L6027.7 4799.5C6001.63 4799.5 5980.5 4778.37 5980.5 4752.3Z" stroke="#FFFFFF" stroke-width="9.16667" stroke-linejoin="round" stroke-miterlimit="10" fill="#4F81BD" fill-rule="evenodd"/><text fill="#FFFFFF" font-family="Calibri,Calibri_MSFontService,sans-serif" font-weight="400" font-size="110" transform="matrix(1 0 0 1 6096.8 4533)">Charles VI, </text><text fill="#FFFFFF" font-family="Calibri,Calibri_MSFontService,sans-serif" font-weight="400" font-size="110" transform="matrix(1 0 0 1 6119.51 4654)">‘the mad’</text><path d="M6333.98 4799.5 6333.98 4893.75 5874.5 4893.75 5874.5 4988.01" stroke="#4774AB" stroke-width="9.16667" stroke-linejoin="round" stroke-miterlimit="10" fill="none" fill-rule="evenodd"/><path d="M5520.5 5034.6C5520.5 5008.59 5541.59 4987.5 5567.6 4987.5L6180.4 4987.5C6206.41 4987.5 6227.5 5008.59 6227.5 5034.6L6227.5 5411.4C6227.5 5437.41 6206.41 5458.5 6180.4 5458.5L5567.6 5458.5C5541.59 5458.5 5520.5 5437.41 5520.5 5411.4Z" stroke="#FFFFFF" stroke-width="9.16667" stroke-linejoin="round" stroke-miterlimit="10" fill="#4F81BD" fill-rule="evenodd"/><text fill="#FFFFFF" font-family="Calibri,Calibri_MSFontService,sans-serif" font-weight="400" font-size="110" transform="matrix(1 0 0 1 5623.46 5132)">Charles VII, </text><text fill="#FFFFFF" font-family="Calibri,Calibri_MSFontService,sans-serif" font-weight="400" font-size="110" transform="matrix(1 0 0 1 5785.34 5253)">‘the </text><text fill="#FFFFFF" font-family="Calibri,Calibri_MSFontService,sans-serif" font-weight="400" font-size="110" transform="matrix(1 0 0 1 5641.2 5374)">victorious’</text><path d="M6333.5 4799.5 6333.5 4893.75 6792.98 4893.75 6792.98 4988.01" stroke="#4774AB" stroke-width="9.16667" stroke-linejoin="round" stroke-miterlimit="10" fill="none" fill-rule="evenodd"/><path d="M6439.5 5034.6C6439.5 5008.59 6460.59 4987.5 6486.6 4987.5L7099.4 4987.5C7125.41 4987.5 7146.5 5008.59 7146.5 5034.6L7146.5 5411.4C7146.5 5437.41 7125.41 5458.5 7099.4 5458.5L6486.6 5458.5C6460.59 5458.5 6439.5 5437.41 6439.5 5411.4Z" stroke="#FFFFFF" stroke-width="9.16667" stroke-linejoin="round" stroke-miterlimit="10" fill="#FFFFFF" fill-rule="evenodd"/><text font-family="Calibri,Calibri_MSFontService,sans-serif" font-weight="400" font-size="110" transform="matrix(1 0 0 1 6516.61 5193)">Catherine of </text><text font-family="Calibri,Calibri_MSFontService,sans-serif" font-weight="400" font-size="110" transform="matrix(1 0 0 1 6662.47 5314)">Valois</text><path d="M6793 5458.5 6793 5647.01" stroke="#4774AB" stroke-width="9.16667" stroke-linejoin="round" stroke-miterlimit="10" fill="none" fill-rule="evenodd"/><path d="M6439.5 5694.6C6439.5 5668.59 6460.59 5647.5 6486.6 5647.5L7099.4 5647.5C7125.41 5647.5 7146.5 5668.59 7146.5 5694.6L7146.5 6071.4C7146.5 6097.41 7125.41 6118.5 7099.4 6118.5L6486.6 6118.5C6460.59 6118.5 6439.5 6097.41 6439.5 6071.4Z" stroke="#FFFFFF" stroke-width="9.16667" stroke-linejoin="round" stroke-miterlimit="10" fill="#B84542" fill-rule="evenodd"/><text fill="#FFFFFF" font-family="Calibri,Calibri_MSFontService,sans-serif" font-weight="400" font-size="110" transform="matrix(1 0 0 1 6542.15 5853)">Henry VI of </text><text fill="#FFFFFF" font-family="Calibri,Calibri_MSFontService,sans-serif" font-weight="400" font-size="110" transform="matrix(1 0 0 1 6614.31 5974)">England</text><path d="M4149.56 1325.2 3108.71 1631.44 3120.16 1670.36 3019.43 1615.43 3074.36 1514.7 3085.81 1553.61 4126.66 1247.37Z" stroke="#1C334E" stroke-width="9.16667" stroke-miterlimit="8" fill="#4F81BD" fill-rule="evenodd"/><path d="M2387.47 2000.86 1346.62 2307.11 1358.07 2346.03 1257.34 2291.09 1312.27 2190.36 1323.72 2229.28 2364.57 1923.03Z" stroke="#1C334E" stroke-width="9.16667" stroke-miterlimit="8" fill="#4F81BD" fill-rule="evenodd"/><path d="M440.818 2791.76 189.893 2970.51 213.429 3003.55 100.278 2984.54 119.284 2871.39 142.821 2904.43 393.745 2725.68Z" stroke="#1C334E" stroke-width="9.16667" stroke-miterlimit="8" fill="#4F81BD" fill-rule="evenodd"/><path d="M708.094 2999.22 2194.43 2522.44 2182.04 2483.81 2284.07 2536.28 2231.6 2638.32 2219.21 2599.69 732.875 3076.47Z" stroke="#1C334E" stroke-width="9.16667" stroke-miterlimit="8" fill="#4F81BD" fill-rule="evenodd"/><path d="M3027.5 2518 3591.5 2518 3591.5 2475.5 3676.5 2560.5 3591.5 2645.5 3591.5 2603 3027.5 2603Z" stroke="#1C334E" stroke-width="9.16667" stroke-miterlimit="8" fill="#4F81BD" fill-rule="evenodd"/><path d="M4483.5 2326.75 5906 2326.75 5906 2284.5 5990.5 2369 5906 2453.5 5906 2411.25 4483.5 2411.25Z" stroke="#1C334E" stroke-width="9.16667" stroke-miterlimit="8" fill="#4F81BD" fill-rule="evenodd"/></g></svg>